<?xml version="1.0" encoding="UTF-8"?>
<svg xmlns="http://www.w3.org/2000/svg" viewBox="0 0 512 512">
  <defs>
    <linearGradient id="bgGrad8" x1="0%" y1="0%" x2="100%" y2="100%">
      <stop offset="0%" stop-color="#f97316"/>
      <stop offset="100%" stop-color="#ec4899"/>
    </linearGradient>
  </defs>
  
  <!-- Background rounded square -->
  <rect x="16" y="16" width="480" height="480" rx="96" fill="url(#bgGrad8)"/>
  
  <!-- Script/text panel (behind, rotated) -->
  <g transform="rotate(6, 291, 301)">
    <rect x="196" y="216" width="190" height="170" rx="16" fill="white"/>
    
    <!-- Simple text lines -->
    <line x1="221" y1="260" x2="361" y2="260" stroke="#ec4899" stroke-width="12" stroke-linecap="round"/>
    <line x1="221" y1="300" x2="331" y2="300" stroke="#f97316" stroke-width="12" stroke-linecap="round"/>
    <line x1="221" y1="340" x2="351" y2="340" stroke="#ec4899" stroke-width="12" stroke-linecap="round"/>
  </g>
  
  <!-- Speech bubble (front, rotated) -->
  <g transform="rotate(-5, 226, 200)">
    <!-- Background color outline for gap effect -->
    <path d="M126 154 Q126 126 154 126 L298 126 Q326 126 326 154 L326 233 Q326 261 298 261 L196 261 L166 301 L166 261 L154 261 Q126 261 126 233 Z" 
          fill="white" stroke="url(#bgGrad8)" stroke-width="8"/>
    
    <!-- Waveform inside bubble -->
    <g fill="#f97316">
      <rect x="151" y="166" width="14" height="50" rx="7"/>
      <rect x="176" y="153" width="14" height="76" rx="7"/>
      <rect x="201" y="139" width="14" height="104" rx="7"/>
      <rect x="226" y="156" width="14" height="70" rx="7"/>
      <rect x="251" y="144" width="14" height="94" rx="7"/>
      <rect x="276" y="161" width="14" height="60" rx="7"/>
    </g>
  </g>
</svg>
